<?xml version="1.0" standalone="no"?>
<!DOCTYPE svg PUBLIC "-//W3C//DTD SVG 20010904//EN"
 "http://www.w3.org/TR/2001/REC-SVG-20010904/DTD/svg10.dtd">
<svg version="1.0" xmlns="http://www.w3.org/2000/svg"
 width="777.000000pt" height="826.000000pt" viewBox="0 0 777.000000 826.000000"
 preserveAspectRatio="xMidYMid meet">
<metadata>
Created by potrace 1.16, written by Peter Selinger 2001-2019
</metadata>
<g transform="translate(0.000000,826.000000) scale(0.100000,-0.100000)"
fill="#000000" stroke="none">
<path d="M3237 8223 c-76 -34 -82 -35 -215 -36 -75 -1 -156 2 -179 7 -38 8
-50 4 -136 -38 -75 -38 -98 -54 -113 -82 -11 -20 -33 -44 -51 -55 -17 -11 -41
-35 -52 -54 -14 -24 -28 -35 -43 -35 -47 0 -228 -44 -245 -60 -14 -13 -33 -15
-86 -12 -58 4 -75 1 -123 -23 -30 -15 -58 -33 -61 -41 -4 -10 -23 -14 -64 -14
-49 0 -62 4 -81 24 -35 38 -70 46 -199 46 -135 0 -111 11 -207 -93 -27 -28
-46 -38 -90 -47 -32 -6 -82 -18 -113 -27 -69 -19 -68 -19 -206 93 -118 96
-147 113 -211 121 -75 8 -130 -12 -182 -67 -66 -70 -79 -74 -210 -74 -106 0
-121 2 -192 31 -113 47 -139 49 -162 17 -18 -26 -18 -27 1 -68 11 -22 57 -80
101 -128 94 -100 109 -138 93 -221 -5 -29 -9 -107 -7 -173 2 -108 5 -126 27
-162 13 -23 49 -58 79 -79 72 -50 91 -90 95 -196 3 -57 11 -102 29 -149 22
-59 23 -68 10 -79 -28 -23 -42 -64 -53 -159 -15 -120 -43 -241 -76 -321 -46
-114 -27 -166 73 -195 31 -9 83 -30 114 -45 71 -36 157 -59 219 -59 37 0 57
-7 95 -33 118 -81 139 -84 360 -52 249 37 278 50 394 179 50 57 99 76 196 76
65 0 86 4 106 20 l25 19 25 -27 c14 -15 28 -39 32 -55 4 -15 22 -44 40 -65 25
-28 34 -46 34 -73 0 -20 5 -45 10 -56 13 -23 103 -108 121 -114 11 -4 11 -10
-2 -35 -24 -46 -59 -257 -48 -286 5 -15 6 -30 0 -39 -5 -8 -9 -58 -9 -113 0
-82 -5 -113 -30 -187 -37 -112 -90 -218 -146 -292 -44 -59 -59 -117 -34 -132
8 -5 7 -12 -2 -22 -8 -10 -13 -62 -15 -162 -6 -262 -4 -332 13 -415 13 -67 14
-96 6 -150 -6 -38 -18 -73 -26 -80 -19 -14 -54 -97 -62 -147 -4 -21 -10 -39
-15 -39 -5 0 -34 -22 -64 -50 -64 -58 -87 -66 -152 -52 -51 11 -107 4 -182
-23 -24 -8 -92 -24 -150 -34 -84 -15 -125 -28 -195 -65 -53 -27 -110 -49 -140
-53 -36 -4 -59 -14 -78 -34 -51 -50 -33 -87 92 -189 97 -79 130 -121 130 -163
0 -14 13 -58 29 -99 33 -80 46 -200 29 -250 -7 -20 -26 -37 -59 -54 l-49 -24
0 -61 c0 -55 3 -64 30 -89 29 -27 30 -30 30 -123 0 -52 4 -117 10 -145 14 -74
-5 -132 -111 -344 -95 -192 -124 -233 -169 -243 -43 -9 -72 -47 -77 -102 -3
-26 -11 -55 -18 -63 -28 -32 -28 -67 -1 -95 24 -24 32 -26 75 -20 34 4 59 2
85 -9 39 -16 41 -19 91 -159 36 -103 76 -147 134 -147 23 0 55 7 72 16 28 14
32 14 65 -7 27 -16 54 -22 112 -24 113 -4 210 -33 262 -78 24 -20 59 -42 79
-48 20 -7 55 -30 79 -51 40 -37 47 -39 85 -34 23 3 101 10 172 15 72 5 148 15
170 23 l40 14 20 -35 c37 -64 64 -76 174 -76 91 0 99 2 130 28 42 35 116 39
126 7 13 -40 54 -50 214 -50 82 0 161 4 176 10 21 8 47 1 158 -46 92 -39 140
-66 157 -87 24 -28 32 -30 121 -38 52 -4 115 -15 139 -23 45 -15 52 -21 93
-86 34 -52 83 -66 156 -43 59 18 151 24 151 10 0 -5 6 -23 14 -40 8 -18 16
-43 18 -57 4 -32 82 -86 138 -95 22 -4 62 -2 88 4 26 6 68 13 93 16 62 8 133
55 167 109 29 48 93 88 170 106 26 7 61 28 92 55 55 49 61 51 109 34 24 -8 60
-8 138 0 l106 11 23 -25 c13 -14 31 -25 41 -25 23 0 83 36 83 50 0 7 9 5 22
-4 12 -9 37 -16 55 -16 41 0 62 35 47 78 -9 24 -6 28 30 47 71 36 86 71 76
183 -4 42 27 75 69 75 40 0 71 -28 71 -66 0 -23 14 -43 66 -93 36 -35 77 -67
90 -70 31 -8 65 14 94 60 24 40 28 42 56 21 33 -25 71 -18 113 20 48 44 56 72
34 126 -16 41 -16 43 8 86 15 29 35 49 56 58 20 9 38 26 46 47 l15 33 20 -46
c22 -50 35 -59 88 -59 30 0 34 -3 34 -25 0 -14 7 -42 15 -61 14 -35 14 -37
-10 -66 -33 -39 -35 -100 -3 -122 34 -24 72 -19 147 18 l68 35 12 -25 c6 -14
11 -31 11 -39 0 -22 59 -65 91 -65 16 0 56 11 89 25 40 17 78 25 118 25 45 0
63 5 80 20 32 30 29 77 -8 127 -19 25 -28 47 -24 57 9 23 62 49 88 42 18 -4
21 -11 18 -53 -3 -42 0 -52 22 -75 31 -31 78 -42 124 -28 49 13 117 56 142 87
12 16 40 37 62 48 33 16 49 34 79 90 21 39 38 79 39 90 0 11 30 52 68 91 72
75 129 154 139 192 9 39 -13 70 -85 116 -89 57 -99 79 -83 188 18 128 0 152
-154 210 -40 16 -63 31 -71 48 -30 61 -55 167 -65 272 -11 112 -11 113 16 173
45 99 55 151 48 238 -5 69 -10 82 -35 107 -40 40 -117 299 -125 420 -5 84 -5
87 60 285 89 270 107 339 107 411 0 44 7 78 25 118 14 31 25 67 25 80 0 40
-60 276 -80 315 -21 42 -87 105 -119 116 -12 4 -21 15 -21 27 0 11 -16 36 -37
55 -49 47 -48 76 6 152 44 63 55 90 66 156 6 35 22 54 118 147 l112 106 1 126
1 125 32 36 c49 57 44 87 -30 154 -34 31 -90 99 -125 152 -73 111 -104 140
-171 164 -26 9 -70 28 -98 41 -37 19 -64 25 -105 24 -129 -3 -351 48 -437 101
-28 18 -49 22 -87 20 -165 -10 -174 -7 -292 80 -30 23 -52 30 -85 31 -42 0
-48 4 -157 112 -163 160 -202 227 -217 374 -3 35 -11 75 -18 89 -14 31 -56 53
-102 53 -21 0 -50 8 -65 17 -27 15 -28 20 -23 63 7 63 -12 96 -89 158 -91 73
-106 91 -168 209 -30 59 -67 115 -82 126 -22 16 -51 22 -137 28 -60 4 -125 12
-143 17 -18 6 -70 15 -115 21 -48 6 -103 20 -130 34 -29 14 -118 38 -222 58
l-174 34 -18 42 c-25 58 -50 71 -159 83 -197 22 -290 61 -343 143 -19 28 -54
70 -77 92 -23 22 -53 57 -66 77 -13 21 -35 40 -49 44 -16 4 -25 13 -25 26 0
29 -17 56 -83 131 -48 54 -60 74 -60 100 1 36 -25 128 -35 126 -4 -1 -42 -17
-85 -36z m1618 -2203 c46 -37 65 -37 105 -3 26 21 33 24 41 12 16 -25 10 -67
-15 -96 -79 -95 -73 -167 22 -262 27 -27 68 -59 91 -71 24 -12 69 -40 101 -63
32 -23 81 -54 109 -69 104 -57 103 -104 -4 -133 -99 -26 -165 -23 -221 12 -82
50 -94 55 -124 48 -42 -9 -60 -40 -60 -103 0 -64 -19 -104 -57 -121 -50 -23
-204 -26 -279 -6 -36 10 -68 24 -71 31 -3 8 5 39 17 69 39 97 24 140 -63 179
-32 14 -73 45 -104 79 -48 50 -52 58 -43 82 20 53 4 147 -43 255 -9 18 177
142 238 159 22 6 94 11 160 11 66 0 127 5 135 10 21 14 23 13 65 -20z m-1252
-306 c30 -25 49 -32 107 -36 30 -3 38 -9 54 -43 13 -27 19 -58 18 -93 -2 -60
12 -93 57 -136 24 -23 29 -34 24 -57 -8 -42 13 -83 63 -124 41 -34 44 -40 44
-85 0 -57 -7 -80 -25 -80 -7 0 -16 -13 -20 -30 -4 -16 -10 -30 -15 -30 -9 0
-20 36 -20 70 0 46 -26 70 -76 70 -58 0 -103 20 -137 59 -37 44 -36 92 3 166
17 31 30 69 30 84 -1 65 -72 155 -192 241 -27 18 -48 37 -48 41 0 10 49 17 79
12 14 -2 38 -15 54 -29z m3456 -9 c25 -14 65 -30 89 -35 59 -15 102 -57 177
-170 36 -55 86 -116 115 -140 59 -49 63 -74 20 -115 l-29 -28 2 -111 c1 -61
-2 -121 -6 -132 -4 -12 -48 -57 -97 -99 -91 -80 -124 -128 -135 -196 -3 -19
-28 -71 -55 -114 -65 -103 -66 -135 -10 -200 22 -25 40 -49 40 -52 0 -3 -37
-43 -82 -89 -53 -55 -89 -84 -103 -84 -44 0 -251 52 -303 75 -30 14 -90 31
-135 39 -45 8 -95 19 -110 25 -36 14 -160 14 -208 1 -20 -6 -65 -35 -99 -66
-34 -30 -87 -72 -119 -92 -31 -20 -93 -65 -139 -99 -133 -101 -188 -122 -270
-101 -40 10 -65 29 -172 134 -105 103 -137 128 -203 158 -135 64 -287 230
-287 315 -1 73 -38 125 -159 219 l-24 19 89 61 c51 36 100 62 115 62 16 0 44
-17 80 -49 29 -26 70 -56 89 -66 48 -25 144 -25 190 -1 60 32 94 35 206 15 86
-15 117 -16 158 -7 89 19 418 169 526 240 25 16 74 61 110 99 l65 70 122 9
c67 5 139 16 159 25 58 24 177 151 197 210 10 28 38 91 62 140 25 51 45 104
45 123 0 41 23 42 89 7z m-3126 -33 c9 -10 22 -35 29 -57 11 -32 18 -40 38
-40 19 0 26 -8 33 -34 12 -49 -9 -168 -33 -181 -12 -6 -21 -28 -27 -61 l-8
-51 -27 22 c-25 19 -28 28 -28 78 0 54 -2 59 -41 92 -32 28 -41 43 -42 70 -2
32 2 37 43 57 47 22 53 40 26 73 -7 8 -16 23 -19 33 -9 24 34 23 56 -1z
m-1001 -140 c164 -72 233 -89 385 -100 123 -9 136 -12 180 -40 27 -17 65 -38
85 -46 34 -15 36 -18 28 -46 -12 -41 5 -93 42 -136 37 -42 63 -54 138 -63 l55
-6 12 -105 11 -105 -26 -22 c-15 -12 -41 -22 -59 -23 -49 0 -83 -17 -135 -66
-26 -24 -55 -44 -65 -44 -10 0 -53 24 -96 54 -106 74 -168 99 -243 100 -46 0
-71 -6 -106 -26 -33 -18 -50 -23 -62 -16 -10 5 -97 38 -194 73 -257 91 -245
84 -298 186 -35 68 -52 91 -79 103 -42 20 -104 20 -154 0 -34 -13 -46 -14 -78
-3 -50 16 -112 56 -120 76 -7 19 24 218 39 246 19 36 53 47 174 56 65 5 193 8
284 7 l165 -2 117 -52z m1384 -48 c26 -33 57 -56 100 -75 38 -18 65 -36 69
-49 10 -32 -35 -139 -77 -179 -44 -43 -58 -77 -58 -141 0 -46 -2 -49 -27 -52
-21 -2 -37 -17 -66 -60 -47 -71 -96 -93 -205 -93 -72 0 -74 1 -108 37 -38 43
-43 64 -15 73 11 3 24 20 30 36 6 17 22 40 36 51 25 19 25 22 25 155 0 131 1
136 18 120 11 -10 35 -17 60 -17 60 0 90 30 108 107 14 61 49 133 64 133 4 0
25 -21 46 -46z m707 -154 c81 -64 166 -74 297 -36 l83 24 33 -34 c45 -44 80
-53 364 -89 69 -9 155 -21 191 -26 54 -8 88 -7 194 11 70 11 130 18 133 15 3
-3 -25 -36 -64 -73 -56 -55 -94 -81 -199 -134 -167 -84 -314 -147 -379 -160
-41 -9 -68 -8 -134 5 -112 23 -157 21 -220 -8 -94 -44 -165 -30 -249 48 -55
50 -83 67 -113 67 -29 0 -104 -39 -178 -94 -34 -25 -67 -46 -72 -46 -6 0 -78
39 -160 86 l-150 86 0 63 c0 52 4 69 23 91 l23 26 48 -16 c87 -30 188 -40 273
-27 132 20 173 58 181 170 4 65 6 71 27 71 12 0 34 -9 48 -20z m-2735 -180 c7
0 17 -12 23 -27 6 -16 20 -38 31 -50 20 -21 20 -27 9 -124 -11 -96 -10 -103 9
-135 18 -29 27 -33 68 -36 44 -3 47 -5 55 -38 4 -19 19 -73 32 -120 14 -47 34
-120 47 -164 28 -99 76 -175 163 -253 l68 -62 -28 -41 c-27 -39 -28 -44 -22
-123 4 -45 9 -92 13 -104 9 -34 -26 -47 -87 -33 -29 7 -72 9 -108 5 l-58 -7
-7 44 c-6 36 -17 53 -77 111 -84 81 -131 113 -180 121 -51 9 -71 36 -124 166
-61 149 -76 173 -141 221 -30 22 -54 44 -54 48 0 5 16 28 35 51 53 63 105 163
147 280 31 87 38 124 44 216 l7 112 61 -29 c34 -16 67 -29 74 -29z m2201 -281
c191 -107 298 -177 353 -230 43 -42 45 -48 57 -132 16 -111 10 -147 -33 -185
-34 -30 -143 -86 -189 -97 -16 -4 -53 3 -98 20 -102 37 -225 65 -283 65 -43 0
-53 4 -83 36 -39 42 -67 94 -78 144 -13 61 -44 111 -78 125 l-32 13 0 81 -1
81 46 0 c58 0 137 23 180 52 35 24 44 36 60 81 5 15 15 27 22 27 6 0 77 -37
157 -81z m-2460 -540 c31 -69 64 -144 74 -166 24 -55 62 -91 111 -104 79 -22
95 -31 159 -98 48 -49 67 -77 72 -105 11 -56 39 -70 113 -56 46 10 68 9 96 0
25 -8 68 -9 134 -5 92 7 98 6 117 -15 17 -19 20 -36 19 -109 0 -47 -4 -107 -8
-133 -9 -59 -16 -60 -126 -17 -63 24 -95 44 -149 94 -58 53 -77 65 -117 71
-63 9 -98 -4 -102 -38 -6 -52 -85 -49 -151 6 -28 23 -55 36 -88 41 -26 3 -65
17 -85 31 -56 36 -79 32 -123 -22 -24 -29 -41 -42 -47 -36 -6 6 -6 18 2 32 14
26 8 179 -10 270 -6 34 -8 135 -5 268 3 118 5 216 5 218 0 3 12 4 27 2 24 -3
33 -17 82 -129z m2981 -11 c1 -15 132 -110 190 -137 48 -23 92 -59 194 -159
101 -100 141 -132 171 -141 96 -27 179 -4 290 78 44 33 117 85 162 115 46 31
107 78 137 105 61 55 117 76 181 68 213 -29 406 -85 413 -120 2 -9 -13 -28
-34 -44 -116 -89 -158 -131 -226 -225 -52 -71 -110 -134 -185 -200 -131 -117
-267 -255 -318 -323 -55 -73 -64 -78 -121 -60 -27 8 -68 15 -92 15 -39 0 -47
5 -120 78 -93 94 -138 114 -322 142 -238 36 -337 83 -475 225 -75 76 -117 111
-165 135 -36 18 -66 33 -67 34 -1 1 9 35 23 76 14 41 32 101 38 134 l13 61 82
41 c93 46 146 92 162 142 l11 34 29 -34 c15 -18 28 -36 29 -40z m-1567 -61
c15 -8 67 -12 155 -12 l134 0 24 -28 c13 -15 24 -36 24 -46 0 -30 -94 -154
-165 -218 l-67 -61 -18 -109 c-16 -96 -26 -126 -88 -256 -52 -107 -83 -158
-116 -191 -63 -64 -204 -166 -228 -166 -11 0 -41 7 -67 15 -25 8 -68 17 -95
21 l-49 6 6 66 c3 37 17 94 31 127 35 85 49 181 44 298 l-5 100 34 38 c19 21
73 64 121 97 118 81 211 168 233 217 10 22 19 61 19 87 0 47 0 47 26 38 14 -6
35 -16 47 -23z m3490 -176 l27 -11 -57 -92 c-66 -109 -91 -144 -154 -218 -56
-66 -160 -224 -199 -300 -43 -86 -51 -123 -60 -305 -7 -140 -14 -191 -39 -288
-61 -231 -33 -341 140 -557 50 -63 98 -129 105 -147 10 -22 14 -75 14 -162 0
-100 4 -143 20 -192 37 -122 146 -259 301 -380 41 -32 80 -69 86 -81 6 -13 17
-39 25 -58 26 -59 162 -195 262 -260 50 -33 97 -65 104 -71 15 -12 8 -43 -19
-78 -11 -13 -19 -29 -19 -36 0 -24 -41 -65 -66 -65 -17 0 -31 -12 -49 -39 -28
-42 -113 -91 -158 -91 -44 0 -66 30 -60 82 7 60 -12 78 -79 78 -45 0 -54 -4
-89 -39 -22 -21 -39 -45 -39 -53 0 -7 16 -38 35 -68 19 -30 35 -58 35 -62 0
-15 -37 -26 -91 -26 -37 0 -71 -8 -98 -22 -27 -13 -56 -20 -79 -18 -33 3 -38
7 -52 44 -8 23 -22 52 -31 65 l-16 24 -92 -44 c-75 -35 -94 -41 -106 -31 -22
18 -19 31 15 70 33 39 36 56 15 84 -8 11 -15 38 -15 61 0 61 -17 80 -69 71
-41 -6 -42 -6 -57 31 -9 21 -29 50 -47 64 -29 25 -31 30 -33 110 -1 59 -8 97
-22 129 -12 27 -29 111 -43 213 -25 183 -25 186 31 187 43 1 108 36 124 69 29
55 16 110 -38 160 -20 18 -39 25 -81 28 -86 5 -131 37 -203 144 -57 84 -65
135 -57 359 7 192 7 199 -14 228 -11 17 -21 43 -21 58 0 15 -9 37 -20 48 -29
32 -47 182 -31 276 15 92 67 220 121 301 52 76 240 272 361 375 48 40 110 106
139 146 86 118 205 234 305 296 22 14 92 10 138 -7z m-3875 -951 c46 -17 71
-33 97 -65 40 -49 41 -58 19 -100 -9 -16 -22 -72 -30 -123 -15 -99 -25 -122
-79 -190 -39 -48 -55 -96 -55 -163 0 -51 12 -72 94 -156 49 -51 50 -55 51
-112 0 -45 -5 -66 -20 -87 -23 -31 -199 -133 -230 -134 -11 0 -42 11 -69 25
-38 19 -65 25 -118 25 -110 0 -142 -25 -178 -135 -13 -38 -29 -85 -37 -103
l-13 -32 -38 24 c-20 13 -68 34 -105 46 -73 24 -110 53 -105 84 2 11 29 40 61
65 93 73 117 128 81 180 -14 19 -15 29 -5 60 37 120 53 230 53 366 1 77 -4
160 -10 185 -9 38 -8 58 7 115 20 74 43 141 53 150 9 9 102 33 233 59 66 14
131 30 145 35 36 16 127 7 198 -19z m1817 -409 c3 -5 14 -57 24 -114 11 -58
27 -117 37 -131 35 -55 118 -71 205 -41 23 9 67 16 97 18 52 2 55 1 93 -43 86
-100 112 -147 117 -211 4 -55 2 -64 -30 -112 -56 -85 -59 -93 -78 -242 -20
-148 -16 -199 15 -225 25 -21 61 -3 88 42 14 24 34 51 45 61 19 18 20 18 36
-5 9 -12 16 -26 16 -31 0 -17 43 -69 72 -87 35 -21 63 -16 161 31 76 36 104
36 208 3 112 -35 123 -48 138 -164 6 -52 26 -156 42 -230 23 -99 31 -163 33
-240 l1 -105 -31 -13 c-19 -9 -41 -33 -58 -64 -28 -50 -30 -74 -11 -151 6 -22
2 -34 -15 -53 -26 -27 -56 -30 -84 -9 -33 25 -52 17 -96 -35 -23 -27 -47 -50
-54 -50 -7 0 -27 15 -44 33 -16 17 -42 42 -56 54 -16 13 -26 32 -26 48 0 105
-165 131 -216 34 -12 -24 -14 -45 -9 -94 7 -59 5 -65 -18 -89 -14 -14 -46 -30
-71 -37 -51 -13 -57 -27 -26 -67 29 -37 10 -53 -30 -24 -39 29 -52 28 -78 -8
-28 -38 -52 -39 -52 -4 0 26 -1 27 -47 20 -110 -15 -230 -19 -265 -7 -45 15
-68 6 -136 -53 -32 -28 -63 -46 -78 -46 -40 0 -140 -56 -165 -92 -66 -97 -111
-121 -258 -133 -75 -7 -83 -6 -125 19 -36 21 -46 33 -46 54 -1 15 -7 38 -15
52 -8 14 -14 37 -15 51 0 34 113 425 146 503 14 33 43 109 63 167 20 58 48
124 63 145 60 90 80 372 37 545 -20 82 -20 87 -4 145 26 93 29 128 10 163 -17
34 -68 71 -97 71 -20 0 -38 29 -38 60 0 11 10 49 21 83 18 52 20 77 16 152 -3
50 -15 123 -27 164 -11 41 -19 80 -16 88 4 9 24 13 62 13 88 0 167 25 319 100
187 93 237 111 250 91z"/>
</g>
</svg>
